<svg xmlns="http://www.w3.org/2000/svg" xmlns:xlink="http://www.w3.org/1999/xlink" width="832" height="200" viewBox="0 0 832 200"><defs id="defs_block"><filter id="filter_blur" width="1.157" height="1.504" x="-.079" y="-.252"><feGaussianBlur id="feGaussianBlur3780" stdDeviation="4.2"/></filter></defs><title>Buildbot Javascript Data Module Wrappers</title><desc/><rect width="128" height="40" x="67" y="46" fill="#000" stroke="#000" style="filter:url(#filter_blur);opacity:.7;fill-opacity:1"/><rect width="128" height="40" x="259" y="46" fill="#000" stroke="#000" style="filter:url(#filter_blur);opacity:.7;fill-opacity:1"/><rect width="128" height="40" x="451" y="46" fill="#000" stroke="#000" style="filter:url(#filter_blur);opacity:.7;fill-opacity:1"/><rect width="128" height="40" x="451" y="126" fill="#000" stroke="#000" style="filter:url(#filter_blur);opacity:.7;fill-opacity:1"/><rect width="128" height="40" x="643" y="46" fill="#000" stroke="#000" style="filter:url(#filter_blur);opacity:.7;fill-opacity:1"/><rect width="128" height="40" x="64" y="40" fill="#FFF" stroke="#000"/><text x="128" y="66" fill="#000" font-family="sans-serif" font-size="11" font-style="normal" font-weight="normal" text-anchor="middle" textLength="84">data.getBuilds</text><rect width="128" height="40" x="256" y="40" fill="#FFF" stroke="#000"/><text x="320" y="66" fill="#000" font-family="sans-serif" font-size="11" font-style="normal" font-weight="normal" text-anchor="middle" textLength="60">Collection</text><rect width="128" height="40" x="448" y="40" fill="#FFF" stroke="#000"/><text x="512" y="66" fill="#000" font-family="sans-serif" font-size="11" font-style="normal" font-weight="normal" text-anchor="middle" textLength="36">Builds</text><rect width="128" height="40" x="448" y="120" fill="#FFF" stroke="#000"/><text x="512" y="146" fill="#000" font-family="sans-serif" font-size="11" font-style="normal" font-weight="normal" text-anchor="middle" textLength="30">Steps</text><rect width="128" height="40" x="640" y="40" fill="#FFF" stroke="#000"/><text x="704" y="66" fill="#000" font-family="sans-serif" font-size="11" font-style="normal" font-weight="normal" text-anchor="middle" textLength="60">b.getSteps</text><path fill="none" stroke="#000" d="M 192 60 L 248 60"/><polygon fill="#000" stroke="#000" points="255 60 248 56 248 64 255 60"/><path fill="none" stroke="#000" d="M 384 60 L 440 60"/><polygon fill="#000" stroke="#000" points="447 60 440 56 440 64 447 60"/><path fill="none" stroke="#000" d="M 384 60 L 416 60"/><path fill="none" stroke="#000" d="M 416 60 L 416 140"/><path fill="none" stroke="#000" d="M 416 140 L 440 140"/><polygon fill="#000" stroke="#000" points="447 140 440 136 440 144 447 140"/><path fill="none" stroke="#000" d="M 576 60 L 632 60"/><polygon fill="#000" stroke="#000" points="639 60 632 56 632 64 639 60"/><path fill="none" stroke="#000" d="M 768 60 L 784 60"/><path fill="none" stroke="#000" d="M 784 60 L 784 25"/><path fill="none" stroke="#000" d="M 320 25 L 784 25"/><path fill="none" stroke="#000" d="M 320 25 L 320 32"/><polygon fill="#000" stroke="#000" points="320 39 316 32 324 32 320 39"/></svg>