<svg xmlns="http://www.w3.org/2000/svg" xmlns:xlink="http://www.w3.org/1999/xlink" width="640" height="120" viewBox="0 0 640 120"><defs id="defs_block"><filter id="filter_blur" width="1.157" height="1.504" x="-.079" y="-.252"><feGaussianBlur id="feGaussianBlur3780" stdDeviation="4.2"/></filter></defs><title>Buildbot Javascript Data Module</title><desc/><rect width="128" height="40" x="67" y="46" fill="#000" stroke="#000" style="filter:url(#filter_blur);opacity:.7;fill-opacity:1"/><rect width="128" height="40" x="259" y="46" fill="#000" stroke="#000" style="filter:url(#filter_blur);opacity:.7;fill-opacity:1"/><rect width="128" height="40" x="451" y="46" fill="#000" stroke="#000" style="filter:url(#filter_blur);opacity:.7;fill-opacity:1"/><rect width="128" height="40" x="64" y="40" fill="#FFF" stroke="#000"/><text x="128" y="66" fill="#000" font-family="sans-serif" font-size="11" font-style="normal" font-weight="normal" text-anchor="middle" textLength="24">View</text><rect width="128" height="40" x="256" y="40" fill="#FFF" stroke="#000"/><text x="320" y="66" fill="#000" font-family="sans-serif" font-size="11" font-style="normal" font-weight="normal" text-anchor="middle" textLength="30">Model</text><rect width="128" height="40" x="448" y="40" fill="#FFF" stroke="#000"/><text x="512" y="66" fill="#000" font-family="sans-serif" font-size="11" font-style="normal" font-weight="normal" text-anchor="middle" textLength="36">Server</text><path fill="none" stroke="#000" d="M 200 60 L 256 60"/><polygon fill="#000" stroke="#000" points="193 60 200 56 200 64 193 60"/><path fill="none" stroke="#000" d="M 392 60 L 448 60"/><polygon fill="#000" stroke="#000" points="385 60 392 56 392 64 385 60"/></svg>